<?xml version="1.0" encoding="UTF-8"?>
<svg id="_图层_1" data-name="图层 1" xmlns="http://www.w3.org/2000/svg" viewBox="0 0 727.54 535.54">
  <defs>
    <style>
      .cls-1 {
        fill: none;
      }

      .cls-2 {
        fill: #191f38;
      }

      .cls-3 {
        fill: #f2f2f2;
      }
    </style>
  </defs>
  <path class="cls-1" d="M446.65,21.54h-164.2c-13.62,0-24.67,11.04-24.67,24.67V210.41c0,13.62,11.04,24.67,24.67,24.67h164.2c13.62,0,24.67-11.04,24.67-24.67V46.21c0-13.62-11.04-24.67-24.67-24.67Zm3.36,48.82c0,3.26-2.75,5.9-6.15,5.9h-23.82c-1.13,0-2.04,.88-2.04,1.96v107.38c0,4-3.38,7.24-7.55,7.24h-3.21c-1.13,0-2.04-.88-2.04-1.96V78.21c0-1.08-.91-1.96-2.04-1.96h-44.59l-48.07,43.53c-.82,.74-.86,1.98-.09,2.77l63.7,65.79c1.21,1.25,.3,3.29-1.47,3.29h-11.91c-.56,0-1.09-.22-1.47-.62l-53.73-55.44c-1.25-1.29-3.48-.43-3.48,1.34v52.76c0,1.08-.9,1.96-2.02,1.96h-9.55c-1.11,0-2.02-.88-2.02-1.96V68.14c0-1.24,1.23-4.35,4.8-4.35h6.77c1.11,0,2.02,.88,2.02,1.96v41.42c0,1.71,2.11,2.6,3.4,1.42l45.06-41.13c2.23-2.14,5.06-3.67,9.34-3.67h88.11c1.13,0,2.04,.88,2.04,1.96v4.62Z"/>
  <path class="cls-3" d="M451.11,71.98c0,3.26-2.75,5.9-6.15,5.9h-23.82c-1.13,0-2.04,.88-2.04,1.96v107.38c0,4-3.38,7.24-7.55,7.24h-3.21c-1.13,0-2.04-.88-2.04-1.96V79.83c0-1.08-.91-1.96-2.04-1.96h-44.59l-48.07,43.53c-.82,.74-.86,1.98-.09,2.77l63.7,65.79c1.21,1.25,.3,3.29-1.47,3.29h-11.91c-.56,0-1.09-.22-1.47-.62l-53.73-55.44c-1.25-1.29-3.48-.43-3.48,1.34v52.76c0,1.08-.9,1.96-2.02,1.96h-9.55c-1.11,0-2.02-.88-2.02-1.96V69.76c0-1.24,1.23-4.35,4.8-4.35h6.77c1.11,0,2.02,.88,2.02,1.96v41.42c0,1.71,2.11,2.6,3.4,1.42l45.06-41.13c2.23-2.14,5.06-3.67,9.34-3.67h88.11c1.13,0,2.04,.88,2.04,1.96v4.62Z"/>
  <path class="cls-2" d="M450.3,0h-171c-23.56,0-42.67,19.1-42.67,42.67V213.67c0,23.56,19.1,42.67,42.67,42.67h171c23.56,0,42.67-19.1,42.67-42.67V42.67c0-23.56-19.1-42.67-42.67-42.67Zm21.27,210.27c0,13.62-11.04,24.67-24.67,24.67h-164.2c-13.62,0-24.67-11.04-24.67-24.67V46.07c0-13.62,11.04-24.67,24.67-24.67h164.2c13.62,0,24.67,11.04,24.67,24.67V210.27Z"/>
</svg>