<?xml version="1.0" encoding="UTF-8"?>
<svg id="_图层_1" data-name="图层 1" xmlns="http://www.w3.org/2000/svg" viewBox="0 0 205.02 205.02">
  <defs>
    <style>
      .cls-1 {
        fill: #191f38;
      }

      .cls-2 {
        fill: none;
        stroke: #191f38;
        stroke-miterlimit: 10;
      }
    </style>
  </defs>
  <rect class="cls-2" x=".5" y=".5" width="204.02" height="204.02" rx="33.96" ry="33.96"/>
  <path class="cls-1" d="M167.86,17.65H37.17c-10.84,0-19.63,8.79-19.63,19.63V167.97c0,10.84,8.79,19.63,19.63,19.63H167.86c10.84,0,19.63-8.79,19.63-19.63V37.28c0-10.84-8.79-19.63-19.63-19.63h0Zm2.67,38.86c0,2.59-2.19,4.69-4.89,4.69h-18.96c-.89,0-1.62,.7-1.62,1.55v85.47c0,3.18-2.69,5.76-6.01,5.76h-2.56c-.89,0-1.62-.7-1.62-1.55V62.75c0-.86-.73-1.55-1.62-1.55h-35.49l-38.26,34.65c-.65,.59-.68,1.57-.08,2.2l50.7,52.36c.96,.99,.23,2.62-1.17,2.62h-9.48c-.44,0-.87-.18-1.17-.49l-42.76-44.13c-.99-1.03-2.77-.34-2.77,1.07v41.99c0,.86-.72,1.55-1.6,1.55h-7.6c-.89,0-1.6-.7-1.6-1.55V54.73c0-.99,.98-3.46,3.82-3.46h5.39c.89,0,1.6,.7,1.6,1.55v32.97c0,1.36,1.68,2.07,2.7,1.13l35.86-32.73c1.78-1.71,4.03-2.93,7.44-2.93h70.13c.89,0,1.62,.7,1.62,1.55v3.68h0Z"/>
</svg>