<?xml version="1.0" encoding="UTF-8"?>
<svg id="_图层_1" data-name="图层 1" xmlns="http://www.w3.org/2000/svg" xmlns:xlink="http://www.w3.org/1999/xlink" viewBox="0 0 727.54 665.24">
  <defs>
    <style>
      .cls-1 {
        fill: url(#_未命名的渐变_56);
      }

      .cls-2 {
        fill: none;
      }

      .cls-3 {
        fill: #f2f2f2;
      }
    </style>
    <linearGradient id="_未命名的渐变_56" data-name="未命名的渐变 56" x1="108.18" y1="256.62" x2="621.43" y2="256.62" gradientUnits="userSpaceOnUse">
      <stop offset="0" stop-color="#36529e"/>
      <stop offset="1" stop-color="#3080b3"/>
    </linearGradient>
  </defs>
  <path class="cls-2" d="M528.69,43.14H199.92c-27.28,0-49.39,22.11-49.39,49.39V421.3c0,27.28,22.11,49.39,49.39,49.39h328.77c27.28,0,49.39-22.11,49.39-49.39V92.52c0-27.28-22.11-49.39-49.39-49.39Zm6.72,97.74c0,6.52-5.51,11.81-12.31,11.81h-47.69c-2.25,0-4.08,1.75-4.08,3.91v215.01c0,8.01-6.77,14.5-15.12,14.5h-6.43c-2.25,0-4.08-1.75-4.08-3.91V156.6c0-2.16-1.83-3.91-4.08-3.91h-89.28l-96.24,87.16c-1.63,1.48-1.72,3.96-.19,5.54l127.54,131.72c2.42,2.5,.59,6.59-2.94,6.59h-23.84c-1.11,0-2.18-.45-2.94-1.23l-107.58-111.01c-2.5-2.58-6.97-.86-6.97,2.68v105.64c0,2.16-1.81,3.91-4.03,3.91h-19.13c-2.23,0-4.03-1.75-4.03-3.91V136.42c0-2.48,2.46-8.71,9.61-8.71h13.55c2.23,0,4.03,1.75,4.03,3.91v82.93c0,3.43,4.22,5.2,6.8,2.85l90.22-82.34c4.47-4.29,10.13-7.36,18.71-7.36h176.43c2.25,0,4.08,1.75,4.08,3.91v9.25Z"/>
  <path class="cls-3" d="M537.62,144.12c0,6.52-5.51,11.81-12.31,11.81h-47.69c-2.25,0-4.08,1.75-4.08,3.91v215.01c0,8.01-6.77,14.5-15.12,14.5h-6.43c-2.25,0-4.08-1.75-4.08-3.91V159.84c0-2.16-1.83-3.91-4.08-3.91h-89.28l-96.24,87.16c-1.63,1.48-1.72,3.96-.19,5.54l127.54,131.72c2.42,2.5,.59,6.59-2.94,6.59h-23.84c-1.11,0-2.18-.45-2.94-1.23l-107.58-111.01c-2.5-2.58-6.97-.86-6.97,2.68v105.64c0,2.16-1.81,3.91-4.03,3.91h-19.13c-2.23,0-4.03-1.75-4.03-3.91V139.67c0-2.48,2.46-8.71,9.61-8.71h13.55c2.23,0,4.03,1.75,4.03,3.91v82.93c0,3.43,4.22,5.2,6.8,2.85l90.22-82.34c4.47-4.29,10.13-7.36,18.71-7.36h176.43c2.25,0,4.08,1.75,4.08,3.91v9.25Z"/>
  <path class="cls-1" d="M536,0H193.61c-47.18,0-85.43,38.25-85.43,85.43V427.82c0,47.18,38.25,85.43,85.43,85.43h342.39c47.18,0,85.43-38.25,85.43-85.43V85.43c0-47.18-38.25-85.43-85.43-85.43Zm42.58,421.01c0,27.28-22.11,49.39-49.39,49.39H200.42c-27.28,0-49.39-22.11-49.39-49.39V92.24c0-27.28,22.11-49.39,49.39-49.39h328.77c27.28,0,49.39,22.11,49.39,49.39V421.01Z"/>
</svg>