<?xml version="1.0" encoding="UTF-8"?>
<svg xmlns="http://www.w3.org/2000/svg" viewBox="0 0 255.44 255.44">
  <defs>
    <style>
      .cls-1 {
        isolation: isolate;
      }

      .cls-2 {
        fill: #191f38;
      }

      .cls-3 {
        fill: none;
        stroke: #191f38;
        stroke-miterlimit: 10;
      }

      .cls-4 {
        fill: #f2f2f2;
      }

      .cls-5 {
        fill: #f4f5ff;
        font-family: STXihei, STXihei;
        font-size: 32.54px;
        mix-blend-mode: difference;
      }
    </style>
  </defs>
  <g class="cls-1">
    <g id="_图层_1" data-name="图层 1">
      <rect class="cls-3" x=".5" y=".5" width="254.44" height="254.44" rx="42.35" ry="42.35"/>
      <path class="cls-2" d="M209.22,21.89H46.23c-13.52,0-24.49,10.96-24.49,24.49V209.36c0,13.52,10.96,24.49,24.49,24.49H209.22c13.52,0,24.49-10.96,24.49-24.49V46.37c0-13.52-10.96-24.49-24.49-24.49h0Zm3.33,48.46c0,3.23-2.73,5.85-6.1,5.85h-23.64c-1.12,0-2.02,.87-2.02,1.94v106.59c0,3.97-3.36,7.19-7.5,7.19h-3.19c-1.12,0-2.02-.87-2.02-1.94V78.13c0-1.07-.91-1.94-2.02-1.94h-44.26l-47.71,43.21c-.81,.73-.85,1.96-.09,2.75l63.23,65.3c1.2,1.24,.29,3.27-1.46,3.27h-11.82c-.55,0-1.08-.22-1.46-.61l-53.33-55.03c-1.24-1.28-3.46-.43-3.46,1.33v52.37c0,1.07-.9,1.94-2,1.94h-9.48c-1.11,0-2-.87-2-1.94V68.13c0-1.23,1.22-4.32,4.76-4.32h6.72c1.11,0,2,.87,2,1.94v41.11c0,1.7,2.09,2.58,3.37,1.41l44.73-40.82c2.22-2.13,5.02-3.65,9.28-3.65h87.47c1.12,0,2.02,.87,2.02,1.94v4.59h0Z"/>
      <path class="cls-4" d="M213.01,69.87c0,3.25-2.75,5.89-6.14,5.89h-23.78c-1.12,0-2.03,.87-2.03,1.95v107.2c0,3.99-3.38,7.23-7.54,7.23h-3.2c-1.12,0-2.03-.87-2.03-1.95V77.71c0-1.08-.91-1.95-2.03-1.95h-44.52l-47.98,43.46c-.81,.74-.86,1.98-.09,2.76l63.59,65.67c1.21,1.25,.3,3.29-1.47,3.29h-11.89c-.55,0-1.09-.22-1.47-.61l-53.63-55.34c-1.25-1.29-3.48-.43-3.48,1.34v52.67c0,1.08-.9,1.95-2.01,1.95h-9.54c-1.11,0-2.01-.87-2.01-1.95V67.65c0-1.24,1.22-4.34,4.79-4.34h6.75c1.11,0,2.01,.87,2.01,1.95v41.35c0,1.71,2.11,2.59,3.39,1.42l44.98-41.06c2.23-2.14,5.05-3.67,9.33-3.67h87.96c1.12,0,2.03,.87,2.03,1.95v4.61Z"/>
      <text class="cls-5" transform="translate(29.68 139.68)"><tspan x="0" y="0">HSR &amp; MORE</tspan></text>
    </g>
  </g>
</svg>