<?xml version="1.0" encoding="UTF-8"?>
<svg id="_图层_1" data-name="图层 1" xmlns="http://www.w3.org/2000/svg" viewBox="0 0 727.54 665.74">
  <defs>
    <style>
      .cls-1 {
        fill: #191f38;
      }

      .cls-2 {
        fill: none;
        stroke: #191f38;
        stroke-miterlimit: 10;
      }
    </style>
  </defs>
  <rect class="cls-2" x="107.68" y=".5" width="513.25" height="513.25" rx="85.43" ry="85.43"/>
  <path class="cls-1" d="M528.69,43.64H199.92c-27.28,0-49.39,22.11-49.39,49.39V421.8c0,27.28,22.11,49.39,49.39,49.39h328.77c27.28,0,49.39-22.11,49.39-49.39V93.02c0-27.28-22.11-49.39-49.39-49.39Zm6.72,97.74c0,6.52-5.51,11.81-12.31,11.81h-47.69c-2.25,0-4.08,1.75-4.08,3.91v215.01c0,8.01-6.77,14.5-15.12,14.5h-6.43c-2.25,0-4.08-1.75-4.08-3.91V157.1c0-2.16-1.83-3.91-4.08-3.91h-89.28l-96.24,87.16c-1.63,1.48-1.72,3.96-.19,5.54l127.54,131.72c2.42,2.5,.59,6.59-2.94,6.59h-23.84c-1.11,0-2.18-.45-2.94-1.23l-107.58-111.01c-2.5-2.58-6.97-.86-6.97,2.68v105.64c0,2.16-1.81,3.91-4.03,3.91h-19.13c-2.23,0-4.03-1.75-4.03-3.91V136.92c0-2.48,2.46-8.71,9.61-8.71h13.55c2.23,0,4.03,1.75,4.03,3.91v82.93c0,3.43,4.22,5.2,6.8,2.85l90.22-82.34c4.47-4.29,10.13-7.36,18.71-7.36h176.43c2.25,0,4.08,1.75,4.08,3.91v9.25Z"/>
</svg>