<?xml version="1.0" encoding="UTF-8"?>
<svg id="_图层_1" data-name="图层 1" xmlns="http://www.w3.org/2000/svg" xmlns:xlink="http://www.w3.org/1999/xlink" viewBox="0 0 727.54 665.74">
  <defs>
    <style>
      .cls-1 {
        fill: #fff;
      }

      .cls-2 {
        fill: url(#_未命名的渐变_56);
        stroke: #000;
        stroke-miterlimit: 10;
      }

      .cls-3 {
        fill: #191f38;
      }
    </style>
    <linearGradient id="_未命名的渐变_56" data-name="未命名的渐变 56" x1="364.3" y1="513.75" x2="364.3" y2=".5" gradientUnits="userSpaceOnUse">
      <stop offset="0" stop-color="#36529e"/>
      <stop offset="1" stop-color="#3080b3"/>
    </linearGradient>
  </defs>
  <rect class="cls-2" x="107.68" y=".5" width="513.25" height="513.25" rx="85.43" ry="85.43"/>
  <rect class="cls-3" x="150.53" y="43.35" width="427.55" height="427.55" rx="49.39" ry="49.39"/>
  <g>
    <path id="K" class="cls-1" d="M221.58,128.5h13.55c2.23,0,4.03,1.75,4.03,3.91v82.93c0,3.43,4.22,5.2,6.8,2.85l90.22-82.34c4.47-4.29,10.13-7.36,18.71-7.36h14.76c3.66,0,5.43,4.35,2.75,6.78l-116.32,105.35c-1.63,1.48-1.72,3.96-.19,5.54l127.54,131.72c2.42,2.5,.59,6.59-2.94,6.59h-23.84c-1.11,0-2.18-.45-2.94-1.23l-107.58-111.01c-2.5-2.58-6.97-.86-6.97,2.68v105.64c0,2.16-1.81,3.91-4.03,3.91h-19.13c-2.23,0-4.03-1.75-4.03-3.91V137.21c0-2.48,2.46-8.71,9.62-8.71Z"/>
    <path id="T" class="cls-1" d="M346.32,149.56v-9.27c0-6.51,5.5-11.78,12.28-11.78h172.73c2.25,0,4.08,1.75,4.08,3.91v9.25c0,6.52-5.51,11.81-12.31,11.81h-47.69c-2.25,0-4.08,1.75-4.08,3.91v215.01c0,8.01-6.77,14.5-15.12,14.5h-6.43c-2.25,0-4.08-1.75-4.08-3.91V157.38c0-2.16-1.83-3.91-4.08-3.91h-91.21c-2.25,0-4.08-1.75-4.08-3.91Z"/>
  </g>
</svg>